<?xml version="1.0" encoding="UTF-8" standalone="no" ?>
<!DOCTYPE svg PUBLIC "-//W3C//DTD SVG 1.1//EN" "http://www.w3.org/Graphics/SVG/1.1/DTD/svg11.dtd">
<svg xmlns="http://www.w3.org/2000/svg" xmlns:xlink="http://www.w3.org/1999/xlink" version="1.1" width="500" height="500" viewBox="0 0 500 500" xml:space="preserve">
<desc>Created with Fabric.js 4.6.0</desc>
<defs>
</defs>
<g transform="matrix(1 0 0 1 63.84 61.87)" id="8P1D7ddT7gzZZe4FtxIJE"  >
<path style="stroke: rgb(0,0,0); stroke-width: 1; stroke-dasharray: none; stroke-linecap: butt; stroke-dashoffset: 0; stroke-linejoin: miter; stroke-miterlimit: 4; fill: rgb(255,255,255); fill-opacity: 0; fill-rule: nonzero; opacity: 1;" vector-effect="non-scaling-stroke"  transform=" translate(0, 0)" d="M 0 0" stroke-linecap="round" />
</g>
<g transform="matrix(1 0 0 1 64.21 62.5)" id="8FgYz_Nu2jjFjuAGu30FF"  >
<path style="stroke: rgb(0,0,0); stroke-width: 1; stroke-dasharray: none; stroke-linecap: butt; stroke-dashoffset: 0; stroke-linejoin: miter; stroke-miterlimit: 4; fill: rgb(255,255,255); fill-rule: nonzero; opacity: 1;" vector-effect="non-scaling-stroke"  transform=" translate(0, 0)" d="M 0 0" stroke-linecap="round" />
</g>
<g transform="matrix(1 0 0 1 340.51 198.92)" id="FUP-aujkTZSNg7hxEETEY"  >
<path style="stroke: rgb(0,0,0); stroke-width: 0; stroke-dasharray: none; stroke-linecap: butt; stroke-dashoffset: 0; stroke-linejoin: miter; stroke-miterlimit: 4; fill: rgb(255,255,255); fill-rule: nonzero; opacity: 1;" vector-effect="non-scaling-stroke"  transform=" translate(0, 0)" d="M -81.1328 -22.81349 L 59.256789999999995 -22.81349 C 64.85306 -22.81349 70.22010999999999 -20.590380000000003 74.17727 -16.63322 L 74.17727 -16.63322 L 74.17727 -16.63322 C 78.71070999999999 -12.099780000000003 81.21852999999999 -5.925920000000001 81.13058 0.484729999999999 C 81.04262999999999 6.895379999999999 78.36636999999999 12.998109999999999 73.71025999999999 17.405469999999998 L 73.48925999999999 17.614659999999997 L 73.48925999999999 17.614659999999997 C 69.96243999999999 20.953059999999997 65.29069999999999 22.813489999999998 60.434429999999985 22.813489999999998 L -81.13279 22.813489999999998" stroke-linecap="round" />
</g>
<g transform="matrix(-1 0 0 -1 180.56 198.92)" id="qf4srXe7CuIoHUekd-ZNK"  >
<path style="stroke: rgb(0,0,0); stroke-width: 0; stroke-dasharray: none; stroke-linecap: butt; stroke-dashoffset: 0; stroke-linejoin: miter; stroke-miterlimit: 4; fill: rgb(255,255,255); fill-rule: nonzero; opacity: 1;" vector-effect="non-scaling-stroke"  transform=" translate(0, 0)" d="M -81.1328 -22.81349 L 59.256789999999995 -22.81349 C 64.85306 -22.81349 70.22010999999999 -20.590380000000003 74.17727 -16.63322 L 74.17727 -16.63322 L 74.17727 -16.63322 C 78.71070999999999 -12.099780000000003 81.21852999999999 -5.925920000000001 81.13058 0.484729999999999 C 81.04262999999999 6.895379999999999 78.36636999999999 12.998109999999999 73.71025999999999 17.405469999999998 L 73.48925999999999 17.614659999999997 L 73.48925999999999 17.614659999999997 C 69.96243999999999 20.953059999999997 65.29069999999999 22.813489999999998 60.434429999999985 22.813489999999998 L -81.13279 22.813489999999998" stroke-linecap="round" />
</g>
<g transform="matrix(0.78 0 0 1 195.62 113.18)" id="g2LueKJlQCAKyzrmET6Bc"  >
<path style="stroke: rgb(0,0,0); stroke-width: 0; stroke-dasharray: none; stroke-linecap: butt; stroke-dashoffset: 0; stroke-linejoin: miter; stroke-miterlimit: 4; fill: rgb(255,255,255); fill-rule: nonzero; opacity: 1;" vector-effect="non-scaling-stroke"  transform=" translate(0, 0)" d="M -81.1328 -22.81349 L 59.256789999999995 -22.81349 C 64.85306 -22.81349 70.22010999999999 -20.590380000000003 74.17727 -16.63322 L 74.17727 -16.63322 L 74.17727 -16.63322 C 78.71070999999999 -12.099780000000003 81.21852999999999 -5.925920000000001 81.13058 0.484729999999999 C 81.04262999999999 6.895379999999999 78.36636999999999 12.998109999999999 73.71025999999999 17.405469999999998 L 73.48925999999999 17.614659999999997 L 73.48925999999999 17.614659999999997 C 69.96243999999999 20.953059999999997 65.29069999999999 22.813489999999998 60.434429999999985 22.813489999999998 L -81.13279 22.813489999999998" stroke-linecap="round" />
</g>
<g transform="matrix(-0.78 0 0 -1 163.18 113.18)" id="TJjPkxs_-mzNC_za8ocfr"  >
<path style="stroke: rgb(0,0,0); stroke-width: 0; stroke-dasharray: none; stroke-linecap: butt; stroke-dashoffset: 0; stroke-linejoin: miter; stroke-miterlimit: 4; fill: rgb(255,255,255); fill-rule: nonzero; opacity: 1;" vector-effect="non-scaling-stroke"  transform=" translate(0, 0)" d="M -81.1328 -22.81349 L 59.256789999999995 -22.81349 C 64.85306 -22.81349 70.22010999999999 -20.590380000000003 74.17727 -16.63322 L 74.17727 -16.63322 L 74.17727 -16.63322 C 78.71070999999999 -12.099780000000003 81.21852999999999 -5.925920000000001 81.13058 0.484729999999999 C 81.04262999999999 6.895379999999999 78.36636999999999 12.998109999999999 73.71025999999999 17.405469999999998 L 73.48925999999999 17.614659999999997 L 73.48925999999999 17.614659999999997 C 69.96243999999999 20.953059999999997 65.29069999999999 22.813489999999998 60.434429999999985 22.813489999999998 L -81.13279 22.813489999999998" stroke-linecap="round" />
</g>
<g transform="matrix(0.8 0 0 1 359.46 284.65)" id="1mY6Dvd6SoUYxTkQscyNA"  >
<path style="stroke: rgb(0,0,0); stroke-width: 0; stroke-dasharray: none; stroke-linecap: butt; stroke-dashoffset: 0; stroke-linejoin: miter; stroke-miterlimit: 4; fill: rgb(255,255,255); fill-rule: nonzero; opacity: 1;" vector-effect="non-scaling-stroke"  transform=" translate(0, 0)" d="M -81.1328 -22.81349 L 59.256789999999995 -22.81349 C 64.85306 -22.81349 70.22010999999999 -20.590380000000003 74.17727 -16.63322 L 74.17727 -16.63322 L 74.17727 -16.63322 C 78.71070999999999 -12.099780000000003 81.21852999999999 -5.925920000000001 81.13058 0.484729999999999 C 81.04262999999999 6.895379999999999 78.36636999999999 12.998109999999999 73.71025999999999 17.405469999999998 L 73.48925999999999 17.614659999999997 L 73.48925999999999 17.614659999999997 C 69.96243999999999 20.953059999999997 65.29069999999999 22.813489999999998 60.434429999999985 22.813489999999998 L -81.13279 22.813489999999998" stroke-linecap="round" />
</g>
<g transform="matrix(-0.8 0 0 -1 326.18 284.65)" id="QqLJPJXD_DHsYJQfLDjD4"  >
<path style="stroke: rgb(0,0,0); stroke-width: 0; stroke-dasharray: none; stroke-linecap: butt; stroke-dashoffset: 0; stroke-linejoin: miter; stroke-miterlimit: 4; fill: rgb(255,255,255); fill-rule: nonzero; opacity: 1;" vector-effect="non-scaling-stroke"  transform=" translate(0, 0)" d="M -81.1328 -22.81349 L 59.256789999999995 -22.81349 C 64.85306 -22.81349 70.22010999999999 -20.590380000000003 74.17727 -16.63322 L 74.17727 -16.63322 L 74.17727 -16.63322 C 78.71070999999999 -12.099780000000003 81.21852999999999 -5.925920000000001 81.13058 0.484729999999999 C 81.04262999999999 6.895379999999999 78.36636999999999 12.998109999999999 73.71025999999999 17.405469999999998 L 73.48925999999999 17.614659999999997 L 73.48925999999999 17.614659999999997 C 69.96243999999999 20.953059999999997 65.29069999999999 22.813489999999998 60.434429999999985 22.813489999999998 L -81.13279 22.813489999999998" stroke-linecap="round" />
</g>
</svg>